<svg width="400" height="500" viewBox="0 0 400 500" fill="none" xmlns="http://www.w3.org/2000/svg">
  <!-- Suit Jacket (Slightly broader than default torso to mask it) -->
  <path d="M100 240C100 190 142 140 200 140C258 140 300 190 300 240V492C300 496 296 500 292 500H108C104 500 100 496 100 492V240Z" fill="#222222"/>

  <!-- Shirt/Collar (centered at y=150-160 area) -->
  <path d="M200 140L150 140L180 180L200 140Z" fill="#FFFFFF"/>
  <path d="M200 140L250 140L220 180L200 140Z" fill="#FFFFFF"/>

  <!-- Red Tie -->
  <path d="M200 140L190 150V210L200 230L210 210V150L200 140Z" fill="#C62828"/>

  <!-- Lapel Shading -->
  <path d="M100 240C100 210 112 170 152 170L200 210L248 170C288 170 300 210 300 240" stroke="#444444" stroke-width="4"/>
</svg>
