<svg width="400" height="500" viewBox="0 0 400 500" fill="none" xmlns="http://www.w3.org/2000/svg">
  <!-- The Fifty (Slightly larger/shifted to cover) -->
  <path d="M180 110L200 75L220 110H180Z" fill="#2E608C"/>

  <!-- Base Silhouette (Slightly broader than default to ensure mask) -->
  <path d="M80 104C80 20 130 -10 200 -10C270 -10 320 20 320 104V134H80V104Z" fill="#E67E00"/>

  <!-- Layer 1 (Bottom Pecha) -->
  <path d="M80 104C80 104 130 65 200 65C270 65 320 104 320 104V134H80V104Z" fill="#FF8C00"/>

  <!-- Diagonal Layers (Lars) -->
  <path d="M320 104C320 104 300 35 200 35C140 35 90 65 90 95L80 104L200 65L320 104Z" fill="#FFA500"/>
  <path d="M80 104C80 104 100 35 200 35C260 35 310 65 310 95L320 104L200 65L80 104Z" fill="#FF8C00"/>

  <!-- Upper Layers -->
  <path d="M310 120C310 120 290 65 200 65C140 65 96 95 96 115L200 90L310 120Z" fill="#FFA500"/>
  <path d="M90 120C90 120 110 65 200 65C260 65 304 95 304 115L200 90L90 120Z" fill="#FF8C00"/>

  <!-- The Nok (Peak) -->
  <path d="M200 -10C200 -10 176 -4 176 16C176 36 200 55 200 55C200 55 224 36 224 16C224 -4 200 -10 200 -10Z" fill="#FFB347"/>

  <!-- Central Shadow -->
  <path d="M200 55C196 75 196 115 200 154H202C206 115 206 75 202 55L200 55Z" fill="black" fill-opacity="0.15"/>
</svg>
