<svg width="400" height="500" viewBox="0 0 400 500" xmlns="http://www.w3.org/2000/svg" role="img">
  <title>Sikh boy avatar (Default)</title>

  <!-- DEFAULT: Blue Kurta/Shirt (torso) -->
  <path d="M108 240C108 190 150 150 200 150C250 150 292 190 292 240V480H108V240Z" fill="#3E7FB8"/>

  <!-- Base: Skin & Face -->
  <circle cx="80" cy="164" r="20" fill="#E8B786"/> <!-- Left Ear -->
  <circle cx="320" cy="164" r="20" fill="#E8B786"/> <!-- Right Ear -->
  <circle cx="200" cy="164" r="124" fill="#E8B786"/> <!-- Face Circle -->

  <!-- Features -->
  <path d="M110 156 Q104 60 200 50 Q296 60 290 156 Q296 120 200 116 Q104 120 110 156 Z" fill="#2B2118"/> <!-- Hair -->
  <circle cx="160" cy="164" r="16" fill="#fff" stroke="#2B2118" stroke-width="3"/> <!-- Left Eye -->
  <circle cx="160" cy="164" r="8" fill="#2B2118"/>
  <circle cx="240" cy="164" r="16" fill="#fff" stroke="#2B2118" stroke-width="3"/> <!-- Right Eye -->
  <circle cx="240" cy="164" r="8" fill="#2B2118"/>
  <path d="M156 218 Q200 250 244 218" fill="none" stroke="#8D4B3B" stroke-width="8" stroke-linecap="round"/> <!-- Mouth -->

  <!-- DEFAULT: Blue Turban (Built-in) -->
  <g>
    <!-- Fifty -->
    <path d="M184 110L200 80L216 110H184Z" fill="#2E608C"/>
    <!-- Base Silhouette -->
    <path d="M84 104C84 30 130 0 200 0C270 0 316 30 316 104V124H84V104Z" fill="#3E7FB8"/>
    <!-- Layers -->
    <path d="M84 104C84 104 130 70 200 70C270 70 316 104 316 104V124H84V104Z" fill="#2E608C"/>
    <path d="M316 104C316 104 300 40 200 40C140 40 90 70 90 100L84 104L200 70L316 104Z" fill="#3E7FB8"/>
    <path d="M84 104C84 104 100 40 200 40C260 40 310 70 310 100L316 104L200 70L84 104Z" fill="#2E608C"/>
    <!-- Nok -->
    <path d="M200 0C200 0 176 6 176 26C176 46 200 60 200 60C200 60 224 46 224 26C224 6 200 0 200 0Z" fill="#5A9AD4"/>
    <!-- Shadow -->
    <path d="M200 60C196 80 196 120 200 154H202C206 120 206 80 202 60L200 60Z" fill="black" fill-opacity="0.1"/>
  </g>
</svg>
